HIERARCHY
ROOT Hips
{
 OFFSET 0.000000 0.000000 0.000000
 CHANNELS 6 Xposition Yposition Zposition Yrotation Xrotation Zrotation
 JOINT Chest
 {
  OFFSET 0.000000 9.581000 -0.001100
  CHANNELS 3 Yrotation Xrotation Zrotation
  JOINT Chest2
  {
   OFFSET 0.000000 9.561100 0.002200
   CHANNELS 3 Yrotation Xrotation Zrotation
   JOINT Chest3
   {
    OFFSET 0.000000 9.521100 0.000000
    CHANNELS 3 Yrotation Xrotation Zrotation
    JOINT Chest4
    {
     OFFSET 0.000000 9.511400 0.000000
     CHANNELS 3 Yrotation Xrotation Zrotation
     JOINT Neck
     {
      OFFSET 0.000000 14.375100 0.000000
      CHANNELS 3 Yrotation Xrotation Zrotation
      JOINT Head
      {
       OFFSET 0.000000 8.901200 0.004600
       CHANNELS 3 Yrotation Xrotation Zrotation
       End Site
       {
        OFFSET 0.000000 16.962200 0.002400
       }
      }
     }
     JOINT RightCollar
     {
      OFFSET -2.920100 9.518800 0.000000
      CHANNELS 3 Yrotation Xrotation Zrotation
      JOINT RightShoulder
      {
       OFFSET -13.664500 0.000000 0.000000
       CHANNELS 3 Yrotation Xrotation Zrotation
       JOINT RightElbow
       {
        OFFSET 0.000000 -29.999200 0.000000
        CHANNELS 3 Yrotation Xrotation Zrotation
        JOINT RightWrist
        {
         OFFSET 0.000000 -24.253600 0.000000
         CHANNELS 3 Yrotation Xrotation Zrotation
         End Site
         {
          OFFSET 0.000000 -17.918900 0.000000
         }
        }
       }
      }
     }
     JOINT LeftCollar
     {
      OFFSET 2.920100 9.518800 0.000000
      CHANNELS 3 Yrotation Xrotation Zrotation
      JOINT LeftShoulder
      {
       OFFSET 13.664500 0.000000 0.000000
       CHANNELS 3 Yrotation Xrotation Zrotation
       JOINT LeftElbow
       {
        OFFSET 0.000000 -29.999200 0.000000
        CHANNELS 3 Yrotation Xrotation Zrotation
        JOINT LeftWrist
        {
         OFFSET 0.000000 -24.253600 0.000000
         CHANNELS 3 Yrotation Xrotation Zrotation
         End Site
         {
          OFFSET 0.000000 -17.918900 0.000000
         }
        }
       }
      }
     }
    }
   }
  }
 }
 JOINT RightHip
 {
  OFFSET -7.797300 0.005300 0.000500
  CHANNELS 3 Yrotation Xrotation Zrotation
  JOINT RightKnee
  {
   OFFSET 0.000000 -40.663400 -0.000500
   CHANNELS 3 Yrotation Xrotation Zrotation
   JOINT RightAnkle
   {
    OFFSET 0.000000 -39.523700 -0.000900
    CHANNELS 3 Yrotation Xrotation Zrotation
    JOINT RightToe
    {
     OFFSET 0.000000 -6.418000 14.485300
     CHANNELS 3 Yrotation Xrotation Zrotation
     End Site
     {
      OFFSET 0.000000 -1.465200 6.326400
     }
    }
   }
  }
 }
 JOINT LeftHip
 {
  OFFSET 7.797300 0.005300 0.000500
  CHANNELS 3 Yrotation Xrotation Zrotation
  JOINT LeftKnee
  {
   OFFSET 0.000000 -40.663400 -0.000500
   CHANNELS 3 Yrotation Xrotation Zrotation
   JOINT LeftAnkle
   {
    OFFSET 0.000000 -39.523700 -0.000900
    CHANNELS 3 Yrotation Xrotation Zrotation
    JOINT LeftToe
    {
     OFFSET 0.000000 -6.418000 14.485300
     CHANNELS 3 Yrotation Xrotation Zrotation
     End Site
     {
      OFFSET 0.000000 -1.465200 6.326400
     }
    }
   }
  }
 }
}
MOTION
Frames: 12
Frame Time: 0.008333
0.000000 86.422400 0.000000 0.000000 -5.767877 0.000000 0.000000 11.653817 0.000000 0.000000 -5.885947 0.000000 0.000000 -0.000000 0.000000 0.000000 -0.000000 0.000000 0.000000 12.528835 0.000000 0.000000 0.711642 0.000000 0.000000 -0.000000 0.000000 0.000000 0.000000 -90.000000 0.000000 -2.309062 0.000000 0.000000 2.309062 0.000000 0.000000 -0.000000 0.000000 0.000000 -0.000000 90.000000 0.000000 -2.309062 0.000000 0.000000 2.309062 0.000000 0.000000 8.520406 0.000000 0.000000 1.905762 0.000000 -0.000000 -4.658285 0.000000 0.000000 -0.000000 0.000000 0.000000 8.520406 0.000000 0.000000 1.905762 0.000000 -0.000000 -4.658285 0.000000 0.000000 -0.000000 0.000000
-23.565099 126.382200 52.849459 179.795177 -27.404996 -3.185276 -1.229629 21.495422 1.672951 -0.201678 2.887080 0.248647 -0.317520 4.691651 0.403292 -1.074846 18.306544 1.439175 4.437943 18.796707 -0.772357 4.924957 -5.791050 -1.850444 -6.336102 -1.271652 0.625362 -15.347513 -5.502541 -2.668818 -93.214572 -23.650129 92.215490 -24.122191 -6.859598 -15.947415 -6.456843 -0.801000 1.585159 15.618664 -8.100897 2.695176 70.269178 -39.025756 -71.869363 25.851704 -24.259227 17.099644 -6.872097 -54.276907 3.789474 -13.179619 70.896240 -15.580642 17.130961 11.986807 5.897769 0.000268 -0.002098 0.000119 -9.457069 -54.964837 -1.705125 37.480605 66.891222 28.559972 0.888594 36.463023 4.346973 0.005203 -0.000458 0.002305
-23.564126 126.382154 52.849405 179.786693 -27.407288 -3.183451 -1.213932 21.510172 1.677355 -0.208502 2.878010 0.248090 -0.318131 4.708344 0.400036 -1.055348 18.315568 1.442568 4.422597 18.723684 -0.780150 4.909059 -5.873253 -1.854974 -6.335518 -1.262883 0.635568 -15.357755 -5.494144 -2.667287 -93.237700 -23.677559 92.230255 -24.107534 -6.883802 -15.959208 -6.465658 -0.819029 1.594099 15.650059 -8.064655 2.692509 70.283360 -39.049055 -71.899595 25.873915 -24.254379 17.075244 -6.850666 -54.273252 3.778935 -13.177704 70.894888 -15.574653 17.154731 11.981546 5.905979 0.003557 -0.001297 0.001576 -9.467252 -54.950757 -1.695946 37.401045 66.907241 28.468637 0.941192 36.418094 4.378283 0.000548 0.003559 0.000243
-23.564015 126.381628 52.850068 179.786425 -27.405254 -3.179304 -1.210273 21.514958 1.675629 -0.202037 2.884963 0.247141 -0.315833 4.712511 0.399992 -1.047550 18.332938 1.449239 4.402765 18.657645 -0.795353 4.888965 -5.922959 -1.859077 -6.324166 -1.275359 0.634900 -15.367379 -5.475969 -2.662104 -93.277537 -23.703797 92.238788 -24.100440 -6.901611 -15.953786 -6.479750 -0.845319 1.599667 15.667819 -8.040460 2.688250 70.299299 -39.078707 -71.919857 25.846225 -24.287453 17.022281 -6.835461 -54.275509 3.765200 -13.175721 70.898277 -15.569808 17.152531 11.976572 5.909100 0.005886 -0.000427 0.002608 -9.477361 -54.943861 -1.693455 37.388527 66.904117 28.445361 0.946507 36.379505 4.399193 0.002657 0.001557 0.001177
-23.563261 126.381330 52.850239 179.787269 -27.407968 -3.178625 -1.206510 21.526071 1.677703 -0.196599 2.897545 0.248868 -0.313982 4.718881 0.400632 -1.050149 18.325050 1.451095 4.385464 18.643268 -0.807486 4.862727 -5.965000 -1.869518 -6.298480 -1.283993 0.618921 -15.361215 -5.453588 -2.645658 -93.326770 -23.753870 92.227851 -24.126404 -6.918811 -15.927050 -6.481113 -0.858005 1.602304 15.669628 -8.017637 2.683494 70.318317 -39.097021 -71.949196 25.799082 -24.319139 17.009245 -6.824113 -54.273748 3.754431 -13.166622 70.903276 -15.557056 17.148058 11.974834 5.909583 0.007944 -0.000222 0.003520 -9.482602 -54.938074 -1.691036 37.378876 66.907432 28.429447 0.955795 36.363167 4.409292 0.002916 0.003914 0.001292
-23.563372 126.380622 52.851040 179.792765 -27.407486 -3.174166 -1.204332 21.541678 1.678947 -0.196100 2.902215 0.249849 -0.297848 4.762166 0.407155 -1.050861 18.320303 1.453123 4.345566 18.604099 -0.824023 4.827196 -5.998977 -1.876337 -6.287839 -1.352483 0.595170 -15.339105 -5.426292 -2.620357 -93.388952 -23.769310 92.233042 -24.123517 -6.936947 -15.926222 -6.506657 -0.927301 1.611587 15.668797 -7.988798 2.681168 70.370648 -39.206880 -71.930358 25.851746 -24.274406 16.977743 -6.809164 -54.276973 3.738687 -13.203989 70.906833 -15.586920 17.088486 11.978658 5.903458 -0.001479 -0.000120 -0.000655 -9.482374 -54.936477 -1.699206 37.354310 66.913021 28.398729 0.974263 36.329087 4.436158 0.003512 0.000367 0.001556
-23.563175 126.380062 52.851643 179.798352 -27.409786 -3.170967 -1.200216 21.562922 1.680807 -0.195323 2.907905 0.250630 -0.288122 4.775624 0.406800 -1.035710 18.349341 1.458652 4.299676 18.560934 -0.833435 4.784154 -6.035410 -1.875269 -6.263119 -1.467142 0.588303 -15.333045 -5.380980 -2.614308 -93.446778 -23.784602 92.223150 -24.128408 -6.945244 -15.925160 -6.530422 -1.020151 1.626812 15.654410 -7.963596 2.685571 70.415950 -39.290052 -71.919394 25.906350 -24.220434 16.971249 -6.797098 -54.277147 3.723301 -13.231107 70.907695 -15.608947 17.063520 11.980743 5.899843 -0.006182 -0.001736 -0.002739 -9.481177 -54.934800 -1.701600 37.341411 66.920252 28.381404 0.980115 36.310420 4.443282 0.006487 0.000163 0.002874
-23.562913 126.379497 52.852439 179.805352 -27.411911 -3.168294 -1.186177 21.589162 1.685822 -0.194143 2.915172 0.251559 -0.285978 4.778263 0.406356 -1.041827 18.342523 1.460234 4.278405 18.544313 -0.835393 4.729150 -6.070494 -1.865052 -6.267837 -1.505572 0.595604 -15.312484 -5.376656 -2.617161 -93.476920 -23.788375 92.210884 -24.125017 -6.950995 -15.924066 -6.531566 -1.079034 1.639771 15.633829 -7.963314 2.690399 70.446374 -39.340423 -71.895579 25.876707 -24.217824 16.986589 -6.791116 -54.276458 3.710763 -13.242620 70.907682 -15.619481 17.056119 11.981420 5.898273 -0.007926 -0.002593 -0.003512 -9.461827 -54.938933 -1.718315 37.327114 66.931131 28.373172 0.982736 36.297696 4.449181 0.007776 -0.002850 0.003445
-23.562803 126.378962 52.853472 179.814444 -27.413303 -3.165254 -1.175971 21.608009 1.687619 -0.172049 2.938655 0.255020 -0.315303 4.752240 0.404411 -1.035969 18.351992 1.459692 4.256964 18.526851 -0.834480 4.666966 -6.114934 -1.846599 -6.275467 -1.540828 0.607049 -15.265408 -5.400928 -2.628869 -93.515366 -23.780823 92.183394 -24.116866 -6.939226 -15.943573 -6.497843 -1.166390 1.637062 15.581020 -7.943130 2.717565 70.443661 -39.358154 -71.863328 25.837220 -24.236159 16.996529 -6.785589 -54.276756 3.694133 -13.239239 70.907858 -15.616779 17.076999 11.980869 5.901886 -0.005191 -0.003220 -0.002300 -9.442863 -54.943650 -1.743027 37.361401 66.925492 28.417383 0.960772 36.291686 4.442916 0.008036 -0.005705 0.003560
-23.562772 126.378592 52.854625 179.823723 -27.414816 -3.161466 -1.152303 21.628965 1.696802 -0.187438 2.927802 0.250817 -0.320009 4.756859 0.406127 -1.014921 18.379049 1.459488 4.211668 18.490053 -0.830037 4.606096 -6.164000 -1.828627 -6.291645 -1.595261 0.624451 -15.248261 -5.430827 -2.648704 -93.547079 -23.774837 92.201929 -24.109702 -6.941300 -16.008285 -6.498045 -1.238696 1.634391 15.548510 -7.928763 2.741856 70.465686 -39.385342 -71.867514 25.809102 -24.254489 17.000745 -6.782960 -54.280387 3.681852 -13.241014 70.912087 -15.621232 17.097357 11.981795 5.905490 -0.000480 -0.005804 -0.000213 -9.425727 -54.947001 -1.768895 37.376080 66.924814 28.442074 0.951166 36.284726 4.435931 0.007053 -0.005039 0.003125
-23.563074 126.378626 52.855505 179.831644 -27.419239 -3.154750 -1.159074 21.634997 1.687244 -0.178177 2.926149 0.249141 -0.305954 4.768681 0.404177 -1.021696 18.383226 1.461057 4.168256 18.462228 -0.823327 4.548541 -6.199548 -1.814539 -6.293931 -1.655471 0.639764 -15.256216 -5.420321 -2.679406 -93.552791 -23.772376 92.213727 -24.073189 -6.949371 -16.048684 -6.482216 -1.287867 1.623956 15.539704 -7.952830 2.762226 70.551417 -39.451437 -71.935827 25.786557 -24.241032 16.984431 -6.801762 -54.279580 3.692373 -13.239485 70.917703 -15.634442 17.076571 11.983191 5.899138 0.001472 -0.007305 0.000652 -9.402358 -54.943865 -1.806977 37.399786 66.915985 28.477578 0.942190 36.279707 4.432627 0.004132 -0.001206 0.001831
-23.563268 126.378904 52.856510 179.834271 -27.424318 -3.145959 -1.150472 21.640070 1.680399 -0.180870 2.916918 0.248288 -0.312998 4.777656 0.405932 -1.001871 18.370856 1.441943 4.119704 18.451977 -0.801644 4.484629 -6.226720 -1.798232 -6.307593 -1.666136 0.661682 -15.266213 -5.423605 -2.696216 -93.559097 -23.781107 92.237883 -24.051798 -6.952097 -16.080111 -6.471483 -1.310947 1.622241 15.545749 -7.972348 2.792548 70.600910 -39.481757 -71.998870 25.780598 -24.211670 16.966898 -6.804218 -54.275366 3.692322 -13.241358 70.919874 -15.641666 17.037980 11.984776 5.890507 -0.002385 -0.006167 -0.001057 -9.375961 -54.936936 -1.847617 37.466453 66.894628 28.552864 0.917291 36.270725 4.423165 -0.000836 0.003807 -0.000370
